<?xml version="1.0" encoding="utf-8"?>
<!-- Generator: Adobe Illustrator 16.0.3, SVG Export Plug-In . SVG Version: 6.00 Build 0)  -->
<!DOCTYPE svg PUBLIC "-//W3C//DTD SVG 1.1//EN" "http://www.w3.org/Graphics/SVG/1.1/DTD/svg11.dtd">
<svg version="1.1" id="Layer_1" xmlns="http://www.w3.org/2000/svg" xmlns:xlink="http://www.w3.org/1999/xlink" x="0px" y="0px"
	 width="512px" height="512px" viewBox="0 0 512 512" enable-background="new 0 0 512 512" xml:space="preserve">
<title>ionicons-v5-a</title>
<path fill="#4B4B4C" d="M256,48C141.31,48,48,141.31,48,256c0,114.689,93.31,208,208,208c114.689,0,208-93.311,208-208
	C464,141.31,370.69,48,256,48z M336,272h-64v64c0,8.836-7.164,16-16,16c-8.837,0-16-7.164-16-16v-64h-64c-8.837,0-16-7.164-16-16
	c0-8.836,7.163-16,16-16h64v-64c0-8.836,7.163-16,16-16c8.836,0,16,7.164,16,16v64h64c8.836,0,16,7.164,16,16
	C352,264.836,344.836,272,336,272z"/>
</svg>
