<?xml version="1.0" encoding="utf-8"?>
<!-- Generator: Adobe Illustrator 16.0.3, SVG Export Plug-In . SVG Version: 6.00 Build 0)  -->
<!DOCTYPE svg PUBLIC "-//W3C//DTD SVG 1.1//EN" "http://www.w3.org/Graphics/SVG/1.1/DTD/svg11.dtd">
<svg version="1.1" id="Camada_1" xmlns="http://www.w3.org/2000/svg" xmlns:xlink="http://www.w3.org/1999/xlink" x="0px" y="0px"
	 width="841.89px" height="491.599px" viewBox="0 0 841.89 491.599" enable-background="new 0 0 841.89 491.599"
	 xml:space="preserve">
<path fill-rule="evenodd" clip-rule="evenodd" fill="#FFFFFF" d="M297.905,152.823c-5.744,16.07,1.446,34.223,17.161,41.809
	l114.367,55.189c16.823,8.129,37.043,1.067,45.16-15.757L529.8,119.701c8.114-16.823,1.06-37.042-15.764-45.165L399.675,19.336
	c-16.828-8.115-37.051-1.061-45.169,15.761l-3.485,7.231L297.905,152.823z"/>
<g>
	<defs>
		<path id="SVGID_1_" d="M80.681,311.447c0,12.606,7.852,17.354,20.873,17.354c0-1.647-2.066-3.094-2.066-11.161
			c0-32.869,27.908-53.117,59.528-53.117c21.708,0,26.459,12.189,26.459,36.17c0,41.757-22.326,93.844-43.196,93.844
			c-8.477,0-11.993-9.923-11.993-23.979c0-31.834,17.361-84.751,36.171-96.11c-3.722-1.247-7.228-1.661-10.747-1.661
			c-37.206,0-56.009,63.456-56.009,96.951c0,30.176,15.292,41.531,36.995,41.531c54.153,0,76.269-63.442,76.269-103.343
			c0-30.793-12.808-52.916-48.988-52.916C120.364,255.011,80.681,282.505,80.681,311.447"/>
	</defs>
	<use xlink:href="#SVGID_1_"  overflow="visible" fill="#4B4B4C"/>
	<clipPath id="SVGID_2_">
		<use xlink:href="#SVGID_1_"  overflow="visible"/>
	</clipPath>
</g>
<g>
	<defs>
		<path id="SVGID_3_" d="M271.464,313.714c0,4.549,2.482,10.545,7.443,10.545c1.649,0,5.989-0.622,6.612-2.064
			c0,22.734-15.503,69.037-35.763,69.037c-4.955,0-7.024-2.69-7.024-6.826c0-1.859,0.414-4.543,1.037-7.438l14.878-70.275H228.88
			l-14.886,70.275c-0.819,3.927-1.029,7.646-1.029,9.916c0,16.332,9.721,24.386,25.426,24.386c42.166,0,58.911-57.652,58.911-90.733
			c0-9.089-3.099-17.983-13.023-17.983C275.599,302.553,271.464,307.305,271.464,313.714"/>
	</defs>
	<use xlink:href="#SVGID_3_"  overflow="visible" fill="#4B4B4C"/>
	<clipPath id="SVGID_4_">
		<use xlink:href="#SVGID_3_"  overflow="visible"/>
	</clipPath>
</g>
<g>
	<defs>
		<path id="SVGID_5_" d="M355.178,315.785c3.931,0,5.168,3.305,5.168,8.474c0,17.155-14.059,33.074-29.975,34.106
			C334.507,337.9,344.642,315.785,355.178,315.785 M297.716,378.413c0,23.356,12.812,32.856,32.242,32.856
			c27.491,0,45.063-19.214,56.842-38.229h-7.023c-10.342,11.782-20.261,20.871-36.594,20.871c-9.916,0-14.877-3.298-14.877-17.36
			c0-2.485,0.21-5.374,0.41-8.27c24.806-1.445,47.544-19.839,47.544-43.612c0-10.333-4.341-19.833-22.738-19.833
			C311.145,304.836,297.716,354.643,297.716,378.413"/>
	</defs>
	<use xlink:href="#SVGID_5_"  overflow="visible" fill="#4B4B4C"/>
	<clipPath id="SVGID_6_">
		<use xlink:href="#SVGID_5_"  overflow="visible"/>
	</clipPath>
</g>
<g>
	<defs>
		<path id="SVGID_7_" d="M420.908,319.504l2.688-12.812h-29.768l-21.909,103.343h29.768l16.536-78.544
			c5.168-4.748,8.887-7.854,15.087-7.854c6.197,0,0.414,13.648,11.984,13.648c10.135,0,14.887-7.858,14.887-15.091
			c0-7.858-4.96-15.502-14.258-15.502C436.003,306.692,428.142,313.303,420.908,319.504"/>
	</defs>
	<use xlink:href="#SVGID_7_"  overflow="visible" fill="#4B4B4C"/>
	<clipPath id="SVGID_8_">
		<use xlink:href="#SVGID_7_"  overflow="visible"/>
	</clipPath>
</g>
<g>
	<defs>
		<path id="SVGID_9_" d="M498.632,319.504l2.677-12.812H471.55l-21.911,103.343h29.766l16.534-78.544
			c5.165-4.748,8.884-7.854,15.091-7.854c6.204,0,0.411,13.648,11.991,13.648c10.132,0,14.876-7.858,14.876-15.091
			c0-7.858-4.953-15.502-14.261-15.502C513.72,306.692,505.865,313.303,498.632,319.504"/>
	</defs>
	<use xlink:href="#SVGID_9_"  overflow="visible" fill="#4B4B4C"/>
	<clipPath id="SVGID_10_">
		<use xlink:href="#SVGID_9_"  overflow="visible"/>
	</clipPath>
</g>
<g>
	<defs>
		<path id="SVGID_11_" d="M600.327,306.692l-14.056,66.348c-3.104,10.337-8.478,18.191-16.537,18.191
			c-4.55,0-6.208-3.726-6.208-8.478c0-1.859,0.205-3.719,0.626-5.786l14.883-70.275h-29.77l-14.052,66.348
			c-1.029,4.967-1.658,9.506-1.658,13.434c0,17.361,9.722,24.796,22.116,24.796c8.686,0,20.263-2.68,30.6-19.624
			c1.237,12.808,8.682,19.624,20.458,19.624c11.164,0,29.769-4.533,41.548-38.229h-8.686c-3.094,10.337-8.675,18.191-16.735,18.191
			c-5.78,0-8.471-1.869-8.471-7.649c0-1.863,0.198-3.932,0.827-6.614l14.873-70.275H600.327z"/>
	</defs>
	<use xlink:href="#SVGID_11_"  overflow="visible" fill="#4B4B4C"/>
	<clipPath id="SVGID_12_">
		<use xlink:href="#SVGID_11_"  overflow="visible"/>
	</clipPath>
</g>
<g>
	<defs>
		<path id="SVGID_13_" d="M702.957,317.43l2.27-10.737h-29.756l-21.914,103.343h29.763l14.049-66.348
			c3.097-10.333,8.686-19.019,16.131-19.019c4.956,0,7.438,3.726,7.438,10.542c0,13.231-9.301,38.652-9.301,52.712
			c0,11.782,4.963,23.347,20.875,23.347c10.952,0,20.872-6.396,22.745-21.279c-1.248,0.828-3.315,1.241-6.83,1.241
			c-6.2,0-8.262-3.521-8.262-8.686c0-11.567,9.916-36.589,9.916-53.324c0-16.537-9.714-23.356-22.939-23.356
			C720.729,305.865,711.636,307.513,702.957,317.43"/>
	</defs>
	<use xlink:href="#SVGID_13_"  overflow="visible" fill="#4B4B4C"/>
	<clipPath id="SVGID_14_">
		<use xlink:href="#SVGID_13_"  overflow="visible"/>
	</clipPath>
</g>
<g>
	<defs>
		<path id="SVGID_15_" d="M354.506,35.097l-3.484,7.231c12.526-1.952,26.213-3.371,35.893,0.785
			c5.289,2.274,9.383,4.207,11.735,7.984c5.849,1.195,8.491,5.595,15.022,6.104c2.514,4.219,8.198,5.251,10.323,9.859
			c3.178,10.791,8.505,23.775,21.599,21.596c0.911-0.666,1.396-1.74,1.876-2.821c1.563-0.475,3.746-0.323,4.227-1.876
			c2.096,5.851-3.94,10.261-3.285,15.492c0.464,3.705,3.813,4.642,5.629,7.984c0.478,9.333-2.333,24.155,2.354,31.452
			c3.5,1.032,6.022,3.05,9.853,3.752c3.903-0.95,6.99-2.72,10.8-3.752c-0.211,5.292-6.529,8.47-7.037,15.025
			c4.59,1.64,8.43,0.811,12.539-0.023c2.791-0.565,5.699-1.133,9.049-0.923c1.99-2.421,5.212-2.517,7.519-4.222
			c3.682-2.724,5-7.455,8.446-10.327c0.784,6.258-1.065,9.893-3.756,12.668c0.205,1.617-0.182,2.638-0.467,3.76
			c-4.473,6.797-9.789,12.744-18.777,15.024c-2.354,3.285-5.676,5.595-8.453,8.45c-3.063,7.626-10.549,20.305-19.715,13.139
			c-2.744,0.385-4.352-0.368-5.952-1.123c-1.375-0.647-2.754-1.291-4.849-1.222c-1.291-1.374-2.028-3.292-4.221-3.75
			c-1.93-6.367-7.717-8.877-12.673-12.209c-5.062-6.061-8.431-13.802-13.619-19.713c0.868-3.837-2.742-3.209-1.881-7.044
			c-2.096-0.098-1.972-2.411-3.752-2.818c-0.627,0.782-2.662,0.151-3.289,0.939c0.572,11.752,11.188,17.203,9.859,32.392
			c3.775,8.591,7.355,17.372,13.617,23.469c-5.447,3.884-17.123,1.084-23.943,0.469c1.567-24.404-12.79-32.895-21.597-46.937
			c-2.503-0.316-4.188-1.446-6.57-1.879c-8.99,3.84-18.528,7.13-17.368,21.122c-2.979,2.13-1.226,6.184-1.88,10.33
			c-0.383,2.426-1.888,4.134-1.876,5.629c0.047,6.663,6.907,8.497,7.509,14.551c-6.181,0.338-11.572,0.3-16.431,0
			c-0.881-0.048-1.853,0.027-2.836,0.096c-2.517,0.19-5.131,0.375-6.554-1.501c-0.713-2.475,2.194-4.262,3.289-6.572
			c0.269-0.565-0.361-1.787,0-2.818c0.578-1.631,1.753-1.338,1.873-2.813c0.197-2.293-1.285-3.904-1.401-6.101
			c-0.131-2.359,1.075-4.403,1.401-7.045c1.103-8.798,0.155-18.886,0-28.167c-1.187-0.533-2.283-1.15-3.289-1.88
			c-8.264,1.742-18.466,1.567-25.346,4.692c-6.19-0.994-11.549,0.235-16.71,1.265c-5.744,16.07,1.446,34.226,17.161,41.809
			l114.367,55.189c16.823,8.134,37.043,1.071,45.16-15.755L529.8,119.701c8.114-16.823,1.06-37.042-15.764-45.168L399.675,19.336
			c-4.741-2.281-9.748-3.367-14.679-3.367C372.415,15.969,360.338,23.01,354.506,35.097"/>
	</defs>
	<use xlink:href="#SVGID_15_"  overflow="visible" fill="#A00C10"/>
	<clipPath id="SVGID_16_">
		<use xlink:href="#SVGID_15_"  overflow="visible"/>
	</clipPath>
</g>
<path fill="#4B4B4C" stroke="#FFFFFF" stroke-width="0.25" stroke-miterlimit="10" d="M225.371,473.612l4.312,0.643
	c0.182,1.331,0.683,2.299,1.505,2.903c1.1,0.824,2.604,1.234,4.508,1.234c2.054,0,3.642-0.41,4.757-1.234
	c1.117-0.816,1.875-1.967,2.267-3.447c0.23-0.906,0.338-2.8,0.323-5.692c-1.939,2.285-4.355,3.427-7.248,3.427
	c-3.597,0-6.381-1.301-8.354-3.893c-1.972-2.599-2.958-5.712-2.958-9.344c0-2.498,0.452-4.801,1.356-6.909
	c0.903-2.113,2.213-3.743,3.93-4.896c1.719-1.147,3.734-1.724,6.05-1.724c3.089,0,5.638,1.249,7.643,3.745v-3.156h4.09v22.623
	c0,4.076-0.416,6.963-1.245,8.662c-0.831,1.703-2.144,3.045-3.943,4.034c-1.799,0.984-4.013,1.478-6.642,1.478
	c-3.121,0-5.644-0.704-7.565-2.11C226.233,478.553,225.305,476.438,225.371,473.612z M229.043,457.891
	c0,3.436,0.681,5.939,2.046,7.516c1.363,1.58,3.071,2.365,5.125,2.365c2.037,0,3.746-0.783,5.126-2.354
	c1.379-1.568,2.071-4.028,2.071-7.382c0-3.204-0.712-5.613-2.132-7.244c-1.421-1.628-3.134-2.438-5.139-2.438
	c-1.974,0-3.647,0.799-5.028,2.4C229.734,452.356,229.043,454.735,229.043,457.891z"/>
<path fill="#4B4B4C" stroke="#FFFFFF" stroke-width="0.25" stroke-miterlimit="10" d="M288.592,462.836l4.806,0.596
	c-0.758,2.807-2.163,4.985-4.211,6.536c-2.053,1.553-4.672,2.327-7.859,2.327c-4.014,0-7.196-1.235-9.55-3.708
	c-2.352-2.473-3.528-5.938-3.528-10.406c0-4.617,1.188-8.197,3.567-10.75c2.375-2.546,5.46-3.826,9.251-3.826
	c3.671,0,6.67,1.25,8.995,3.749c2.327,2.499,3.49,6.012,3.49,10.546c0,0.275-0.008,0.688-0.027,1.238h-20.47
	c0.171,3.018,1.025,5.322,2.56,6.928c1.531,1.602,3.446,2.403,5.737,2.403c1.706,0,3.162-0.447,4.369-1.34
	C286.928,466.232,287.885,464.799,288.592,462.836z M273.316,455.314h15.327c-0.207-2.313-0.794-4.041-1.757-5.194
	c-1.483-1.791-3.404-2.689-5.764-2.689c-2.137,0-3.934,0.714-5.389,2.145C274.275,451.008,273.472,452.919,273.316,455.314z"/>
<path fill="#4B4B4C" stroke="#FFFFFF" stroke-width="0.25" stroke-miterlimit="10" d="M358.571,471.217V435.08h4.438v20.606
	l10.5-10.647h5.743l-10.006,9.712l11.019,16.466h-5.474l-8.651-13.386l-3.13,3.01v10.376H358.571z"/>
<path fill="#4B4B4C" stroke="#FFFFFF" stroke-width="0.25" stroke-miterlimit="10" d="M439.215,464.688l4.754-0.749
	c0.269,1.907,1.009,3.366,2.229,4.38c1.221,1.016,2.926,1.52,5.116,1.52c2.207,0,3.846-0.447,4.912-1.346
	c1.067-0.901,1.601-1.952,1.601-3.164c0-1.083-0.472-1.941-1.412-2.566c-0.657-0.423-2.298-0.968-4.915-1.627
	c-3.526-0.891-5.969-1.657-7.329-2.31c-1.361-0.651-2.394-1.55-3.102-2.696c-0.7-1.147-1.051-2.417-1.051-3.804
	c0-1.267,0.289-2.437,0.866-3.515c0.579-1.075,1.366-1.967,2.364-2.681c0.745-0.549,1.767-1.021,3.057-1.405
	c1.293-0.384,2.677-0.573,4.154-0.573c2.225,0,4.177,0.32,5.858,0.962c1.686,0.638,2.926,1.506,3.727,2.604
	c0.802,1.093,1.352,2.56,1.657,4.389l-4.7,0.644c-0.212-1.459-0.834-2.598-1.855-3.419c-1.024-0.821-2.473-1.228-4.342-1.228
	c-2.206,0-3.78,0.367-4.724,1.093c-0.947,0.73-1.416,1.585-1.416,2.563c0,0.623,0.196,1.186,0.585,1.685
	c0.394,0.518,1.005,0.944,1.845,1.281c0.479,0.18,1.897,0.588,4.244,1.228c3.402,0.909,5.773,1.65,7.119,2.229
	c1.341,0.581,2.397,1.42,3.164,2.525c0.764,1.103,1.147,2.475,1.147,4.113c0,1.601-0.47,3.109-1.402,4.526
	c-0.936,1.413-2.284,2.509-4.046,3.285c-1.763,0.771-3.754,1.16-5.982,1.16c-3.687,0-6.491-0.771-8.422-2.298
	C440.982,469.968,439.746,467.696,439.215,464.688z"/>
<path fill="#4B4B4C" stroke="#FFFFFF" stroke-width="0.25" stroke-miterlimit="10" d="M492.987,468.053l0.656,4.013
	c-1.276,0.271-2.421,0.403-3.438,0.403c-1.648,0-2.922-0.26-3.836-0.781c-0.909-0.523-1.548-1.207-1.915-2.061
	c-0.375-0.85-0.558-2.639-0.558-5.362v-15.437h-3.336v-3.534h3.336v-6.639l4.518-2.729v9.368h4.572v3.534h-4.572v15.689
	c0,1.294,0.081,2.126,0.239,2.498c0.163,0.37,0.421,0.662,0.782,0.882c0.368,0.218,0.877,0.328,1.556,0.328
	C491.496,468.226,492.161,468.168,492.987,468.053z"/>
<path fill="#4B4B4C" stroke="#FFFFFF" stroke-width="0.25" stroke-miterlimit="10" d="M509.472,458.562
	c0-5.304,1.47-9.232,4.428-11.79c2.466-2.118,5.467-3.184,9.009-3.184c3.944,0,7.16,1.297,9.655,3.872
	c2.5,2.583,3.752,6.146,3.752,10.699c0,3.688-0.551,6.588-1.661,8.7c-1.106,2.111-2.716,3.749-4.825,4.922
	c-2.112,1.169-4.422,1.755-6.921,1.755c-4.014,0-7.25-1.286-9.726-3.857C510.708,467.104,509.472,463.401,509.472,458.562z
	 M514.465,458.562c0,3.671,0.799,6.418,2.402,8.245c1.596,1.822,3.614,2.737,6.041,2.737c2.411,0,4.416-0.919,6.012-2.757
	c1.604-1.833,2.404-4.625,2.404-8.388c0-3.541-0.809-6.228-2.415-8.051c-1.608-1.829-3.608-2.74-6.001-2.74
	c-2.427,0-4.445,0.908-6.041,2.729C515.264,452.152,514.465,454.893,514.465,458.562z"/>
<path fill="#4B4B4C" stroke="#FFFFFF" stroke-width="0.25" stroke-miterlimit="10" d="M557.406,471.705V445.34h4.022v3.998
	c1.023-1.872,1.974-3.106,2.84-3.697c0.874-0.599,1.829-0.896,2.869-0.896c1.509,0,3.035,0.48,4.593,1.442l-1.539,4.146
	c-1.091-0.649-2.186-0.968-3.276-0.968c-0.977,0-1.855,0.293-2.634,0.883c-0.777,0.584-1.33,1.396-1.662,2.442
	c-0.496,1.586-0.747,3.327-0.747,5.213v13.803H557.406z"/>
<path fill="#4B4B4C" stroke="#FFFFFF" stroke-width="0.25" stroke-miterlimit="10" d="M332.523,462.836l4.806,0.596
	c-0.758,2.807-2.163,4.985-4.211,6.536c-2.052,1.553-4.672,2.327-7.859,2.327c-4.014,0-7.197-1.235-9.55-3.708
	c-2.352-2.473-3.528-5.938-3.528-10.406c0-4.617,1.189-8.197,3.568-10.75c2.375-2.546,5.46-3.826,9.251-3.826
	c3.671,0,6.67,1.25,8.995,3.749c2.326,2.499,3.49,6.012,3.49,10.546c0,0.275-0.008,0.688-0.027,1.238h-20.471
	c0.172,3.018,1.026,5.322,2.562,6.928c1.53,1.602,3.445,2.403,5.736,2.403c1.706,0,3.162-0.447,4.37-1.34
	C330.859,466.232,331.816,464.799,332.523,462.836z M317.248,455.314h15.327c-0.207-2.313-0.793-4.041-1.757-5.194
	c-1.483-1.791-3.404-2.689-5.764-2.689c-2.138,0-3.933,0.714-5.39,2.145C318.207,451.008,317.403,452.919,317.248,455.314z"/>
<path fill="#4B4B4C" stroke="#FFFFFF" stroke-width="0.25" stroke-miterlimit="10" d="M609.068,463.856l4.807,0.596
	c-0.759,2.807-2.164,4.987-4.211,6.538c-2.053,1.551-4.672,2.327-7.856,2.327c-4.017,0-7.197-1.237-9.552-3.708
	c-2.354-2.473-3.528-5.94-3.528-10.408c0-4.617,1.19-8.196,3.565-10.749c2.376-2.547,5.463-3.826,9.254-3.826
	c3.671,0,6.668,1.25,8.995,3.749c2.325,2.5,3.489,6.011,3.489,10.545c0,0.277-0.008,0.689-0.027,1.238h-20.472
	c0.172,3.018,1.026,5.324,2.563,6.93c1.528,1.601,3.443,2.403,5.735,2.403c1.705,0,3.161-0.449,4.368-1.342
	C607.406,467.255,608.363,465.819,609.068,463.856z M593.795,456.336h15.327c-0.21-2.312-0.794-4.041-1.76-5.193
	c-1.482-1.792-3.404-2.69-5.766-2.69c-2.134,0-3.931,0.714-5.388,2.146C594.752,452.03,593.951,453.941,593.795,456.336z"/>
</svg>
